<svg id="Layer_3" enable-background="new 0 0 64 64" height="512" viewBox="0 0 64 64" width="512" xmlns="http://www.w3.org/2000/svg"><g><path d="m50.689 35.343c.137-.772.22-1.555.261-2.343h-3.95v-2h3.949c-.235-4.484-2.024-8.553-4.847-11.688l-2.395 2.395-1.414-1.414 2.395-2.395c-3.135-2.824-7.204-4.612-11.688-4.847v3.949h-2v-3.949c-4.484.235-8.553 2.024-11.688 4.847l2.395 2.395-1.414 1.414-2.395-2.395c-2.824 3.135-4.612 7.204-4.847 11.688h3.949v2h-3.949c.235 4.484 2.024 8.553 4.847 11.688l2.395-2.395 1.414 1.414-2.395 2.395c3.135 2.824 7.204 4.612 11.688 4.847v-3.949h2v3.955c3.723-.197 7.302-1.477 10.291-3.688-.182-.386-.291-.813-.291-1.267 0-1.302.839-2.402 2-2.816v-.184c0-3.608 2.402-6.662 5.689-7.657zm-18.689.657c-.74 0-1.424-.215-2.019-.567l-5.274 5.274-1.414-1.414 5.274-5.274c-.352-.595-.567-1.279-.567-2.019 0-1.859 1.279-3.411 3-3.858v-9.142h2v9.142c1.721.447 3 1.999 3 3.858 0 2.206-1.794 4-4 4z"/><path d="m45 46c0 .552.448 1 1 1h1v-2h-1c-.552 0-1 .448-1 1z"/><path d="m58.129 53.494-2.329 3.106c-.174.232-.439.377-.729.397-.024.002-.048.003-.071.003-.265 0-.519-.104-.707-.293l-1.293-1.293-1.293 1.293c-.205.205-.477.317-.778.29-.289-.021-.555-.165-.729-.397l-2.329-3.106c-1.691.803-2.871 2.513-2.871 4.506v3h2v-4h2v4h8v-4h2v4h2v-3c0-1.993-1.18-3.703-2.871-4.506z"/><path d="m55 40c0-.553.447-1 1-1s1 .447 1 1c0 1.303.835 2.414 1.998 2.828-.092-3.229-2.747-5.828-5.998-5.828-3.309 0-6 2.691-6 6h5c1.654 0 3-1.346 3-3z"/><circle cx="32" cy="32" r="2"/><path d="m53 51c2.206 0 4-1.794 4-4v-3.013c-.376-.284-.717-.613-1-.99-.913 1.215-2.366 2.003-4 2.003h-3v2c0 2.206 1.794 4 4 4z"/><path d="m57.515 28c-.479 0-.89-.339-.981-.809-.645-3.308-1.928-6.396-3.812-9.181-.269-.397-.218-.929.121-1.268l2.743-2.742-5.586-5.586-2.743 2.743c-.338.34-.87.39-1.268.121-2.784-1.884-5.873-3.167-9.181-3.812-.469-.091-.808-.502-.808-.981v-3.485h-8v3.485c0 .479-.339.89-.809.981-3.308.645-6.396 1.928-9.181 3.812-.397.269-.928.219-1.268-.121l-2.742-2.743-5.586 5.586 2.743 2.743c.339.339.39.87.121 1.268-1.884 2.784-3.167 5.873-3.812 9.181-.091.469-.502.808-.981.808h-3.485v8h3.485c.479 0 .89.339.981.809.645 3.308 1.928 6.396 3.812 9.181.269.397.218.929-.121 1.268l-2.743 2.742 5.586 5.586 2.743-2.743c.34-.339.87-.389 1.268-.121 2.784 1.884 5.873 3.167 9.181 3.812.469.091.808.502.808.981v3.485h8v-3.485c0-.479.339-.89.809-.981 2.713-.528 5.301-1.497 7.691-2.879l.01.017c1.019-1.289 2.478-2.214 4.151-2.539-.576-.605-1.025-1.329-1.31-2.132h-1.351c-.465 0-.899-.115-1.292-.304-3.643 2.772-8.103 4.303-12.708 4.303-11.579 0-21-9.421-21-21s9.421-21 21-21 21 9.421 21 21c0 1.011-.098 2.016-.241 3.012.08-.002.16-.012.241-.012 1.485 0 2.872.414 4.065 1.122.137-.071.286-.122.45-.122h3.485v-8z"/><path d="m60 45h-1v2h1c.552 0 1-.448 1-1s-.448-1-1-1z"/><path d="m50 53 1.109 1.478 1.185-1.185c.194-.195.45-.293.706-.293z"/><path d="m53.707 53.293 1.185 1.185 1.108-1.478h-3c.256 0 .512.098.707.293z"/></g></svg>